<svg width="38" height="37" viewBox="0 0 38 37" fill="none" xmlns="http://www.w3.org/2000/svg">
<rect x="0.940491" width="37" height="37" rx="10" fill="black"/>
<path d="M13.1637 22.3856C13.801 22.7381 18.4134 25.3968 21.6935 23.3476C24.9733 21.2984 24.7923 17.7679 24.7923 16.1498C25.0896 15.5274 25.7173 15.2109 25.7173 13.5261C25.1008 14.0957 24.488 14.2892 23.8788 14.1075C23.2822 13.1977 22.4613 12.795 21.4157 12.9001C19.8478 13.0577 19.2743 14.5958 19.4431 16.5862C17.0256 17.8085 15.13 15.6999 14.1528 14.1075C13.8264 15.3616 13.5119 16.8674 14.1528 18.5327C14.5803 19.6433 15.608 20.5819 17.2353 21.3493C15.5859 22.2429 14.2288 22.5888 13.1637 22.3856Z" stroke="white" stroke-width="1.5" stroke-linejoin="round"/>
</svg>
